<svg xmlns="http://www.w3.org/2000/svg" width="760" height="240" viewBox="0 0 760 240">
  <rect width="760" height="240" fill="#f7f1e3"/>
  <text x="40" y="34" font-family="Arial, sans-serif" font-size="24" fill="#2d3436">킹사이드 캐슬링 전</text>
  <text x="410" y="34" font-family="Arial, sans-serif" font-size="24" fill="#2d3436">킹사이드 캐슬링 후</text>
  <g transform="translate(40,60)">
    <rect width="280" height="140" fill="#dfe6e9" stroke="#636e72" stroke-width="2"/>
    <rect x="0" y="70" width="35" height="35" fill="#b2bec3"/>
    <rect x="35" y="70" width="35" height="35" fill="#ffeaa7"/>
    <rect x="70" y="70" width="35" height="35" fill="#b2bec3"/>
    <rect x="105" y="70" width="35" height="35" fill="#ffeaa7"/>
    <rect x="140" y="70" width="35" height="35" fill="#b2bec3"/>
    <rect x="175" y="70" width="35" height="35" fill="#ffeaa7"/>
    <rect x="210" y="70" width="35" height="35" fill="#b2bec3"/>
    <rect x="245" y="70" width="35" height="35" fill="#ffeaa7"/>
    <text x="0" y="130" font-family="Arial, sans-serif" font-size="14" fill="#2d3436">a1</text>
    <text x="140" y="130" font-family="Arial, sans-serif" font-size="14" fill="#2d3436">e1</text>
    <text x="245" y="130" font-family="Arial, sans-serif" font-size="14" fill="#2d3436">h1</text>
    <circle cx="157.5" cy="87.5" r="16" fill="#ffffff" stroke="#2d3436" stroke-width="2"/>
    <text x="149" y="94" font-family="Arial, sans-serif" font-size="16" fill="#2d3436">K</text>
    <circle cx="262.5" cy="87.5" r="16" fill="#ffffff" stroke="#2d3436" stroke-width="2"/>
    <text x="255" y="94" font-family="Arial, sans-serif" font-size="16" fill="#2d3436">R</text>
    <line x1="175" y1="45" x2="245" y2="45" stroke="#0984e3" stroke-width="4" marker-end="url(#arrow)"/>
    <text x="176" y="38" font-family="Arial, sans-serif" font-size="14" fill="#0984e3">킹</text>
    <line x1="245" y1="20" x2="210" y2="20" stroke="#e17055" stroke-width="4" marker-end="url(#arrow)"/>
    <text x="246" y="14" font-family="Arial, sans-serif" font-size="14" fill="#e17055">룩</text>
  </g>
  <g transform="translate(410,60)">
    <rect width="280" height="140" fill="#dfe6e9" stroke="#636e72" stroke-width="2"/>
    <rect x="0" y="70" width="35" height="35" fill="#b2bec3"/>
    <rect x="35" y="70" width="35" height="35" fill="#ffeaa7"/>
    <rect x="70" y="70" width="35" height="35" fill="#b2bec3"/>
    <rect x="105" y="70" width="35" height="35" fill="#ffeaa7"/>
    <rect x="140" y="70" width="35" height="35" fill="#b2bec3"/>
    <rect x="175" y="70" width="35" height="35" fill="#ffeaa7"/>
    <rect x="210" y="70" width="35" height="35" fill="#b2bec3"/>
    <rect x="245" y="70" width="35" height="35" fill="#ffeaa7"/>
    <circle cx="227.5" cy="87.5" r="16" fill="#ffffff" stroke="#2d3436" stroke-width="2"/>
    <text x="219" y="94" font-family="Arial, sans-serif" font-size="16" fill="#2d3436">K</text>
    <circle cx="192.5" cy="87.5" r="16" fill="#ffffff" stroke="#2d3436" stroke-width="2"/>
    <text x="185" y="94" font-family="Arial, sans-serif" font-size="16" fill="#2d3436">R</text>
    <text x="160" y="135" font-family="Arial, sans-serif" font-size="15" fill="#2d3436">킹: e1 → g1</text>
    <text x="160" y="156" font-family="Arial, sans-serif" font-size="15" fill="#2d3436">룩: h1 → f1</text>
  </g>
  <defs>
    <marker id="arrow" markerWidth="10" markerHeight="10" refX="8" refY="3" orient="auto">
      <path d="M0,0 L0,6 L9,3 z" fill="#2d3436"/>
    </marker>
  </defs>
</svg>
