<svg xmlns="http://www.w3.org/2000/svg" width="760" height="300" viewBox="0 0 760 300">
  <rect width="760" height="300" fill="#f5f6fa"/>
  <text x="40" y="34" font-family="Arial, sans-serif" font-size="24" fill="#2d3436">앙파상 전</text>
  <text x="410" y="34" font-family="Arial, sans-serif" font-size="24" fill="#2d3436">앙파상 후</text>
  <g transform="translate(40,60)">
    <rect width="280" height="200" fill="#dfe6e9" stroke="#636e72" stroke-width="2"/>
    <g>
      <rect x="105" y="25" width="35" height="35" fill="#ffeaa7"/>
      <rect x="105" y="60" width="35" height="35" fill="#b2bec3"/>
      <rect x="105" y="95" width="35" height="35" fill="#ffeaa7"/>
      <rect x="105" y="130" width="35" height="35" fill="#b2bec3"/>
      <rect x="140" y="25" width="35" height="35" fill="#b2bec3"/>
      <rect x="140" y="60" width="35" height="35" fill="#ffeaa7"/>
      <rect x="140" y="95" width="35" height="35" fill="#b2bec3"/>
      <rect x="140" y="130" width="35" height="35" fill="#ffeaa7"/>
    </g>
    <circle cx="157.5" cy="147.5" r="15" fill="#ffffff" stroke="#2d3436" stroke-width="2"/>
    <text x="151" y="153" font-family="Arial, sans-serif" font-size="14" fill="#2d3436">P</text>
    <circle cx="122.5" cy="42.5" r="15" fill="#2d3436" stroke="#2d3436" stroke-width="2"/>
    <text x="116" y="48" font-family="Arial, sans-serif" font-size="14" fill="#ffffff">p</text>
    <line x1="122.5" y1="60" x2="122.5" y2="130" stroke="#e17055" stroke-width="4" marker-end="url(#arrowEp)"/>
    <text x="80" y="18" font-family="Arial, sans-serif" font-size="14" fill="#e17055">흑 폰 d7 → d5</text>
    <text x="150" y="187" font-family="Arial, sans-serif" font-size="14" fill="#2d3436">백 폰 e5</text>
  </g>
  <g transform="translate(410,60)">
    <rect width="280" height="200" fill="#dfe6e9" stroke="#636e72" stroke-width="2"/>
    <g>
      <rect x="105" y="25" width="35" height="35" fill="#ffeaa7"/>
      <rect x="105" y="60" width="35" height="35" fill="#b2bec3"/>
      <rect x="105" y="95" width="35" height="35" fill="#ffeaa7"/>
      <rect x="105" y="130" width="35" height="35" fill="#b2bec3"/>
      <rect x="140" y="25" width="35" height="35" fill="#b2bec3"/>
      <rect x="140" y="60" width="35" height="35" fill="#ffeaa7"/>
      <rect x="140" y="95" width="35" height="35" fill="#b2bec3"/>
      <rect x="140" y="130" width="35" height="35" fill="#ffeaa7"/>
    </g>
    <circle cx="122.5" cy="112.5" r="15" fill="#ffffff" stroke="#2d3436" stroke-width="2"/>
    <text x="116" y="118" font-family="Arial, sans-serif" font-size="14" fill="#2d3436">P</text>
    <line x1="157.5" y1="147.5" x2="126.5" y2="116.5" stroke="#0984e3" stroke-width="4" marker-end="url(#arrowEp)"/>
    <line x1="116" y1="141" x2="129" y2="154" stroke="#d63031" stroke-width="4"/>
    <line x1="129" y1="141" x2="116" y2="154" stroke="#d63031" stroke-width="4"/>
    <text x="150" y="186" font-family="Arial, sans-serif" font-size="14" fill="#d63031">d5의 흑 폰은 사라짐</text>
    <text x="145" y="210" font-family="Arial, sans-serif" font-size="14" fill="#0984e3">백 폰은 d6으로 이동</text>
  </g>
  <defs>
    <marker id="arrowEp" markerWidth="10" markerHeight="10" refX="8" refY="3" orient="auto">
      <path d="M0,0 L0,6 L9,3 z" fill="#2d3436"/>
    </marker>
  </defs>
</svg>
