<svg xmlns="http://www.w3.org/2000/svg" width="720" height="620" viewBox="0 0 720 620" role="img" aria-labelledby="title desc">
  <title id="title">Rook controlling an open file</title>
  <desc id="desc">A rook on e1 controls the highlighted e-file, with enemy pieces on e7 and e8 under pressure.</desc>
  <rect width="720" height="620" fill="#f4efe5"/>
  <text x="40" y="44" font-family="Arial, sans-serif" font-size="26" font-weight="700" fill="#2f261c">Rook on an open file</text>
  <g transform="translate(70 80)">
    <rect x="0" y="0" width="480" height="480" fill="#d9b17d" stroke="#3d2b1f" stroke-width="4"/>
    <rect x="240" y="0" width="60" height="480" fill="#ffe88a" opacity="0.95"/>
    <rect x="0" y="0" width="60" height="60" fill="#f3e7c9"/>
    <rect x="120" y="0" width="60" height="60" fill="#f3e7c9"/>
    <rect x="240" y="0" width="60" height="60" fill="none"/>
    <rect x="360" y="0" width="60" height="60" fill="#f3e7c9"/>
    <rect x="60" y="60" width="60" height="60" fill="#f3e7c9"/>
    <rect x="180" y="60" width="60" height="60" fill="#f3e7c9"/>
    <rect x="300" y="60" width="60" height="60" fill="#f3e7c9"/>
    <rect x="420" y="60" width="60" height="60" fill="#f3e7c9"/>
    <rect x="0" y="120" width="60" height="60" fill="#f3e7c9"/>
    <rect x="120" y="120" width="60" height="60" fill="#f3e7c9"/>
    <rect x="360" y="120" width="60" height="60" fill="#f3e7c9"/>
    <rect x="60" y="180" width="60" height="60" fill="#f3e7c9"/>
    <rect x="180" y="180" width="60" height="60" fill="#f3e7c9"/>
    <rect x="300" y="180" width="60" height="60" fill="#f3e7c9"/>
    <rect x="420" y="180" width="60" height="60" fill="#f3e7c9"/>
    <rect x="0" y="240" width="60" height="60" fill="#f3e7c9"/>
    <rect x="120" y="240" width="60" height="60" fill="#f3e7c9"/>
    <rect x="360" y="240" width="60" height="60" fill="#f3e7c9"/>
    <rect x="60" y="300" width="60" height="60" fill="#f3e7c9"/>
    <rect x="180" y="300" width="60" height="60" fill="#f3e7c9"/>
    <rect x="300" y="300" width="60" height="60" fill="#f3e7c9"/>
    <rect x="420" y="300" width="60" height="60" fill="#f3e7c9"/>
    <rect x="0" y="360" width="60" height="60" fill="#f3e7c9"/>
    <rect x="120" y="360" width="60" height="60" fill="#f3e7c9"/>
    <rect x="360" y="360" width="60" height="60" fill="#f3e7c9"/>
    <rect x="60" y="420" width="60" height="60" fill="#f3e7c9"/>
    <rect x="180" y="420" width="60" height="60" fill="#f3e7c9"/>
    <rect x="300" y="420" width="60" height="60" fill="#f3e7c9"/>
    <rect x="420" y="420" width="60" height="60" fill="#f3e7c9"/>

    <g font-family="Arial, sans-serif" font-size="18" font-weight="700" fill="#5a4330">
      <text x="24" y="-12">a</text><text x="84" y="-12">b</text><text x="144" y="-12">c</text><text x="204" y="-12">d</text>
      <text x="264" y="-12">e</text><text x="324" y="-12">f</text><text x="384" y="-12">g</text><text x="444" y="-12">h</text>
      <text x="-22" y="36">8</text><text x="-22" y="96">7</text><text x="-22" y="156">6</text><text x="-22" y="216">5</text>
      <text x="-22" y="276">4</text><text x="-22" y="336">3</text><text x="-22" y="396">2</text><text x="-22" y="456">1</text>
    </g>

    <g font-family="Arial, sans-serif" font-size="34" font-weight="700" text-anchor="middle">
      <text x="270" y="40" fill="#3f2f21">k</text>
      <text x="270" y="100" fill="#3f2f21">p</text>
      <text x="270" y="460" fill="#ffffff" stroke="#3f2f21" stroke-width="1.5">R</text>
    </g>

    <g stroke="#b88400" stroke-width="4" fill="none">
      <line x1="270" y1="430" x2="270" y2="140"/>
      <polygon points="270,110 258,136 282,136" fill="#b88400"/>
    </g>
  </g>
  <g transform="translate(570 150)">
    <rect x="0" y="0" width="120" height="84" rx="10" fill="#fff7cf" stroke="#b88400" stroke-width="2"/>
    <text x="60" y="28" text-anchor="middle" font-family="Arial, sans-serif" font-size="16" font-weight="700" fill="#6d5200">Open e-file</text>
    <text x="60" y="49" text-anchor="middle" font-family="Arial, sans-serif" font-size="13" fill="#6d5200">No pawn blocks</text>
    <text x="60" y="68" text-anchor="middle" font-family="Arial, sans-serif" font-size="13" fill="#6d5200">Rook pressure goes up</text>
  </g>
</svg>
